<svg xmlns="http://www.w3.org/2000/svg" width="850" height="261" viewBox="0 0 850 261">
  <rect x="0.5" y="0.5" width="849" height="260" rx="12" ry="12" fill="#0f1623" stroke="#1a2332" stroke-width="1"/>
  <text x="30" y="38" fill="#64748b" font-size="11" font-family="monospace" letter-spacing="3">LANGUAGE TELEMETRY</text>
  <line x1="425" y1="25" x2="425" y2="236" stroke="#1a2332" stroke-width="1" opacity="0.4"/>
  <text x="460" y="38" fill="#64748b" font-size="11" font-family="monospace" letter-spacing="3">FOCUS SECTORS</text>
  <g transform="translate(30, 65)">
    <text x="0" y="0" fill="#94a3b8" font-size="11" font-family="sans-serif" dominant-baseline="middle">Java</text>
    <rect x="110" y="-6" width="60" height="12" rx="3" fill="#f89820" opacity="0.85"><animate attributeName="width" from="0" to="60" dur="0.8s" begin="0s" fill="freeze"/></rect>
    <text x="320" y="0" fill="#64748b" font-size="10" font-family="monospace" dominant-baseline="middle">30.0%</text>
  </g>
  <g transform="translate(30, 87)">
    <text x="0" y="0" fill="#94a3b8" font-size="11" font-family="sans-serif" dominant-baseline="middle">React/Next</text>
    <rect x="110" y="-6" width="55" height="12" rx="3" fill="#61dafb" opacity="0.85"><animate attributeName="width" from="0" to="55" dur="0.8s" begin="0.1s" fill="freeze"/></rect>
    <text x="320" y="0" fill="#64748b" font-size="10" font-family="monospace" dominant-baseline="middle">27.5%</text>
  </g>
  <g transform="translate(30, 109)">
    <text x="0" y="0" fill="#94a3b8" font-size="11" font-family="sans-serif" dominant-baseline="middle">C# (Unity)</text>
    <rect x="110" y="-6" width="40" height="12" rx="3" fill="#179119" opacity="0.85"><animate attributeName="width" from="0" to="40" dur="0.8s" begin="0.2s" fill="freeze"/></rect>
    <text x="320" y="0" fill="#64748b" font-size="10" font-family="monospace" dominant-baseline="middle">20.0%</text>
  </g>
  <g transform="translate(30, 131)">
    <text x="0" y="0" fill="#94a3b8" font-size="11" font-family="sans-serif" dominant-baseline="middle">TypeScript</text>
    <rect x="110" y="-6" width="30" height="12" rx="3" fill="#3178c6" opacity="0.85"><animate attributeName="width" from="0" to="30" dur="0.8s" begin="0.3s" fill="freeze"/></rect>
    <text x="320" y="0" fill="#64748b" font-size="10" font-family="monospace" dominant-baseline="middle">15.0%</text>
  </g>
  <g transform="translate(30, 153)">
    <text x="0" y="0" fill="#94a3b8" font-size="11" font-family="sans-serif" dominant-baseline="middle">Python</text>
    <rect x="110" y="-6" width="15" height="12" rx="3" fill="#3776ab" opacity="0.85"><animate attributeName="width" from="0" to="15" dur="0.8s" begin="0.4s" fill="freeze"/></rect>
    <text x="320" y="0" fill="#64748b" font-size="10" font-family="monospace" dominant-baseline="middle">7.5%</text>
  </g>
  <circle cx="637" cy="140" r="65" fill="none" stroke="#64748b" stroke-width="0.5" stroke-dasharray="3,3" opacity="0.25"/>
  <path d="M 637 140 L 638.1 75.0 A 65 65 0 0 1 693.9 171.5 Z" fill="#a78bfa" fill-opacity="0.1" stroke="#a78bfa" stroke-opacity="0.3" stroke-width="0.5"/>
  <path d="M 637 140 L 692.7 173.5 A 65 65 0 0 1 581.3 173.5 Z" fill="#00d4ff" fill-opacity="0.1" stroke="#00d4ff" stroke-opacity="0.3" stroke-width="0.5"/>
  <path d="M 637 140 L 580.1 171.5 A 65 65 0 0 1 635.9 75.0 Z" fill="#ffb020" fill-opacity="0.1" stroke="#ffb020" stroke-opacity="0.3" stroke-width="0.5"/>
  <g>
    <path d="M 637 140 L 604.5 83.7 A 65 65 0 0 1 637.0 75.0 Z" fill="#179119" fill-opacity="0.07"/>
    <polygon points="634.5,140 637,75 639.5,140" fill="#179119" opacity="0.25"/>
    <animateTransform attributeName="transform" type="rotate" from="0 637 140" to="360 637 140" dur="8s" repeatCount="indefinite"/>
  </g>
  <text x="708.9" y="98.5" fill="#a78bfa" font-size="9" font-family="monospace" text-anchor="start" dominant-baseline="middle">Full Stack Web</text>
  <text x="708.9" y="110.5" fill="#64748b" font-size="8" font-family="monospace" text-anchor="start" dominant-baseline="middle">(Next.js &amp; Java)</text>
  <text x="637.0" y="223.0" fill="#00d4ff" font-size="9" font-family="monospace" text-anchor="middle" dominant-baseline="middle">Game Dev Jr</text>
  <text x="637.0" y="235.0" fill="#64748b" font-size="8" font-family="monospace" text-anchor="middle" dominant-baseline="middle">(Unity &amp; Fanáticos FC)</text>
  <text x="565.1" y="98.5" fill="#ffb020" font-size="9" font-family="monospace" text-anchor="end" dominant-baseline="middle">Productivity</text>
  <text x="565.1" y="110.5" fill="#64748b" font-size="8" font-family="monospace" text-anchor="end" dominant-baseline="middle">(Lume App &amp; ADHD)</text>
</svg>
